<svg xmlns="http://www.w3.org/2000/svg" viewBox="0 0 32 32" fill="none">
  <rect x="4" y="2" width="18" height="24" rx="2" ry="2" fill="#dc2626" />
  <path d="M22 2v6h6" fill="#ef4444" />
  <path d="M22 2l6 6v20a2 2 0 01-2 2H8a2 2 0 01-2-2v-2" fill="none" stroke="#dc2626" stroke-width="1.5" />
  <path d="M28 8v20a2 2 0 01-2 2H8a2 2 0 01-2-2v-2" fill="#dc2626" />
  <path d="M22 2v6h6" fill="#b91c1c" stroke="#b91c1c" stroke-width="0.5" />
  <rect x="9" y="14" width="10" height="2" rx="1" fill="#ffffff" opacity="0.9" />
  <rect x="9" y="18" width="7" height="2" rx="1" fill="#ffffff" opacity="0.7" />
</svg>
